<svg xmlns="http://www.w3.org/2000/svg" xmlns:xlink="http://www.w3.org/1999/xlink" version="1.1" x="0px" y="0px" viewBox="0 0 100 125" enable-background="new 0 0 100 100" xml:space="preserve"><rect x="-192" fill="#000000" width="185" height="99"/><rect y="-36" fill="#000000" width="100" height="30"/><g><g><rect x="-170.802" y="31.318" fill="#000000" width="8.721" height="8.642"/><path fill="#000000" d="M-164.455,42.312h4.747v-4.703h-4.747V42.312z M-159.266,42.749h-5.63V37.17h5.63V42.749L-159.266,42.749z     M-166.221,44.062h8.279v-8.203h-8.279V44.062L-166.221,44.062z M-157.5,44.5h-9.163v-9.079h9.163V44.5L-157.5,44.5z"/><polygon fill="#000000" points="-166.149,44.133 -166.292,43.991 -158.013,35.787 -157.871,35.929   "/></g></g><rect x="-179" y="58" fill="#000000" width="35" height="32.5"/><text transform="matrix(1 0 0 1 -179 60.1572)" fill="#000000" font-family="'Helvetica-Bold'" font-size="3">Strokes</text><text transform="matrix(1 0 0 1 -179 65.1572)" fill="#000000" font-family="'Helvetica'" font-size="2.4">Try to keep strokes at 4px</text><text transform="matrix(1 0 0 1 -179 70.1572)" fill="#000000" font-family="'Helvetica'" font-size="2.4">Minimum stroke weight is 2px</text><text transform="matrix(1 0 0 1 -179 74.6572)" fill="#000000" font-family="'Helvetica'" font-size="2.4">For thicker strokes use even </text><text transform="matrix(1 0 0 1 -179 77.6572)" fill="#000000" font-family="'Helvetica'" font-size="2.4">numbers: 6px, 8px etc.</text><text transform="matrix(1 0 0 1 -179 82.1572)" fill="#000000" font-family="'Helvetica-Bold'" font-size="2.4">Remember to expand strokes </text><text transform="matrix(1 0 0 1 -179 85.1572)" fill="#000000" font-family="'Helvetica-Bold'" font-size="2.4">before saving as an SVG </text><rect x="-136.5" y="58" fill="#000000" width="35" height="32.5"/><text transform="matrix(1 0 0 1 -136.5 60.1572)" fill="#000000" font-family="'Helvetica-Bold'" font-size="3">Size</text><text transform="matrix(1 0 0 1 -136.5 65.1572)" fill="#000000" font-family="'Helvetica'" font-size="2.4">Cannot be wider or taller than </text><text transform="matrix(1 0 0 1 -136.5 68.6572)" fill="#000000" font-family="'Helvetica'" font-size="2.4">100px (artboard size)</text><text transform="matrix(1 0 0 1 -136.5 73.6572)" fill="#000000" font-family="'Helvetica'" font-size="2.4">Scale your icon to fill as much of </text><text transform="matrix(1 0 0 1 -136.5 76.6572)" fill="#000000" font-family="'Helvetica'" font-size="2.4">the artboard as possible</text><rect x="-94" y="58" fill="#000000" width="35" height="32.5"/><text transform="matrix(1 0 0 1 -94 60.1572)" fill="#000000" font-family="'Helvetica-Bold'" font-size="3">Ungroup</text><text transform="matrix(1 0 0 1 -94 65.1572)" fill="#000000" font-family="'Helvetica'" font-size="2.4">If your design has more than one </text><text transform="matrix(1 0 0 1 -94 68.1572)" fill="#000000" font-family="'Helvetica'" font-size="2.4">shape, make sure to ungroup</text><rect x="-50" y="58" fill="#000000" width="35" height="32.5"/><text transform="matrix(1 0 0 1 -50 60.1572)" fill="#000000" font-family="'Helvetica-Bold'" font-size="3">Save as</text><text transform="matrix(1 0 0 1 -50 65.1572)" fill="#000000" font-family="'Helvetica'" font-size="2.4">Save as .SVG and make sure </text><text transform="matrix(1 0 0 1 -50 68.1572)" fill="#000000" font-family="'Helvetica'" font-size="2.4">“Use Artboards” is checked</text><text transform="matrix(1.0074 0 0 1 -125.542 30.5938)" fill="#000000" font-family="'Helvetica'" font-size="2.5731">100px</text><text transform="matrix(1.0074 0 0 1 -41 39)" fill="#000000" font-family="'Helvetica-Bold'" font-size="5.1462">.SVG</text><rect x="-126.514" y="34.815" fill="#000000" width="10.261" height="10.185"/><rect x="-126.477" y="31.766" fill="#000000" width="0.522" height="2.337"/><rect x="-116.812" y="31.766" fill="#000000" width="0.523" height="2.337"/><rect x="-127" y="32.337" fill="#000000" width="11.233" height="0.572"/><rect x="-83.805" y="33.844" fill="#000000" width="10.305" height="10.156"/><rect x="-76.809" y="28.707" fill="#000000" width="3.308" height="3.261"/><rect x="-178.5" y="22.5" fill="#000000" stroke="#FFFFFF" stroke-miterlimit="10" width="30" height="30"/><rect x="-136.5" y="22.5" fill="#000000" stroke="#FFFFFF" stroke-miterlimit="10" width="30" height="30"/><rect x="-93.5" y="22.5" fill="#000000" stroke="#FFFFFF" stroke-miterlimit="10" width="30" height="30"/><rect x="-49.5" y="22.5" fill="#000000" stroke="#FFFFFF" stroke-miterlimit="10" width="30" height="30"/><path fill="#000000" d="M50.788,0.82c0,0-49.76,18.99-49.76,53.004c0,14.34,11.625,25.962,25.963,25.962  c6.954,0,13.268-2.743,17.925-7.195c-2.427,8.813-5.479,17.333-8.745,20.293h13.972h0.209h13.972  c-3.267-2.96-6.316-11.479-8.746-20.293c4.657,4.452,10.969,7.195,17.928,7.195c14.335,0,25.958-11.622,25.958-25.962  C99.464,19.57,50.788,0.82,50.788,0.82z"/></svg>